<svg width="520" height="140" viewBox="0 0 520 140" xmlns="http://www.w3.org/2000/svg" fill="none">
  <g transform="translate(20,20)">
    <rect x="18" y="18" width="70" height="68" rx="22" fill="#FFFFFF"/>
    <rect x="24" y="24" width="58" height="56" rx="18" fill="none" stroke="#FFFFFF" stroke-width="3"/>

    <rect x="43" y="4" width="20" height="16" rx="4" fill="#FFFFFF"/>
    <rect x="44" y="86" width="18" height="18" rx="3" fill="#FFFFFF"/>

    <circle cx="18" cy="52" r="10" fill="#FFFFFF"/>
    <circle cx="88" cy="52" r="10" fill="#FFFFFF"/>
    <circle cx="18" cy="52" r="5" fill="none" stroke="#9CA3AF" stroke-width="2"/>
    <circle cx="88" cy="52" r="5" fill="none" stroke="#9CA3AF" stroke-width="2"/>

    <circle cx="80" cy="14" r="8" fill="none" stroke="#FFFFFF" stroke-width="3"/>
    <line x1="80" y1="14" x2="84" y2="10" stroke="#FFFFFF" stroke-width="2.5" stroke-linecap="round"/>

    <line x1="38" y1="40" x2="68" y2="40" stroke="#9CA3AF" stroke-width="4" stroke-linecap="round"/>
    <line x1="38" y1="54" x2="68" y2="54" stroke="#9CA3AF" stroke-width="4" stroke-linecap="round"/>
    <line x1="38" y1="68" x2="58" y2="68" stroke="#9CA3AF" stroke-width="4" stroke-linecap="round"/>

    <circle cx="92" cy="90" r="16" fill="#FFFFFF"/>
    <path d="M84 90L90 96L101 84" stroke="#6B7280" stroke-width="4" stroke-linecap="round" stroke-linejoin="round"/>
  </g>

  <g transform="translate(140,38)">
    <text x="0" y="24" font-family="Arial, Helvetica, sans-serif" font-size="34" font-weight="700" fill="#FFFFFF">
      Pressure
    </text>
    <text x="0" y="66" font-family="Arial, Helvetica, sans-serif" font-size="34" font-weight="700" fill="#FFFFFF">
      Registry
    </text>
    <line x1="0" y1="82" x2="220" y2="82" stroke="#FFFFFF" stroke-width="5" stroke-linecap="round"/>
  </g>
</svg>